<?xml version="1.0" encoding="utf-8"?><svg viewBox="0 0 21 24" xmlns="http://www.w3.org/2000/svg" xmlns:xlink="http://www.w3.org/1999/xlink"><style>:root>svg{display:none}:root>svg:target{display:block}</style><svg fill="none" viewBox="0 0 14 14" id="clear" xmlns="http://www.w3.org/2000/svg"><path d="M14 1.41L12.59 0 7 5.59 1.41 0 0 1.41 5.59 7 0 12.59 1.41 14 7 8.41 12.59 14 14 12.59 8.41 7 14 1.41z" fill="#2979FF"/></svg><svg fill="none" viewBox="0 0 20 17" id="clothes" xmlns="http://www.w3.org/2000/svg"><path d="M18.76 12.34h-.01c.75.43 1.25 1.24 1.25 2.16a2.5 2.5 0 01-2.5 2.5h-15A2.5 2.5 0 010 14.5c0-.92.5-1.73 1.25-2.16h-.01L9 7.86S9 7 10 6c1 0 2-.9 2-2a2 2 0 10-4 0H6a4 4 0 018 0 4 4 0 01-3 3.87l7.76 4.47zM2.5 15h15c.17 0 .34-.09.43-.25.14-.25.07-.54-.18-.68L10 9.59l-7.75 4.48c-.25.14-.32.43-.18.68.09.16.26.25.43.25z" fill="#9696A0"/></svg><svg fill="none" viewBox="0 0 16 18" id="entertaiment" xmlns="http://www.w3.org/2000/svg"><path d="M14 6h-2V4h2v2zm0 4h-2V8h2v2zm0 4h-2v-2h2v2zM4 6H2V4h2v2zm0 4H2V8h2v2zm0 4H2v-2h2v2zM14 0v2h-2V0H4v2H2V0H0v18h2v-2h2v2h8v-2h2v2h2V0h-2z" fill="#9696A0"/></svg><svg fill="none" viewBox="0 0 21 24" id="logo" xmlns="http://www.w3.org/2000/svg"><path d="M.987 19.448l2.656-3.328c1.301 1.13 2.549 1.963 3.744 2.496a9.795 9.795 0 003.84.768c1.386 0 2.496-.256 3.328-.768.832-.512 1.248-1.195 1.248-2.048 0-.768-.288-1.365-.864-1.792-.555-.427-1.494-.747-2.816-.96l-4.448-.768c-1.92-.32-3.382-.992-4.384-2.016-.982-1.024-1.472-2.347-1.472-3.968 0-2.09.789-3.744 2.368-4.96C5.787.888 7.94.28 10.65.28c1.621 0 3.253.277 4.896.832 1.664.555 3.114 1.323 4.352 2.304l-2.496 3.456c-1.195-.917-2.368-1.59-3.52-2.016a9.72 9.72 0 00-3.552-.672c-1.238 0-2.23.235-2.976.704-.747.448-1.12 1.056-1.12 1.824 0 .683.245 1.216.736 1.6.49.384 1.312.661 2.464.832l4.224.704c2.218.363 3.882 1.077 4.992 2.144 1.13 1.045 1.696 2.432 1.696 4.16 0 2.176-.864 3.915-2.592 5.216-1.707 1.301-3.99 1.952-6.848 1.952-1.792 0-3.563-.341-5.312-1.024a15.044 15.044 0 01-4.608-2.848z" fill="#fff"/></svg><svg fill="none" viewBox="0 0 18 18" id="search" xmlns="http://www.w3.org/2000/svg"><path d="M6.5 0A6.5 6.5 0 0113 6.5c0 1.61-.59 3.09-1.56 4.23l.27.27h.79l5 5-1.5 1.5-5-5v-.79l-.27-.27A6.516 6.516 0 016.5 13a6.5 6.5 0 110-13zm0 2C4 2 2 4 2 6.5S4 11 6.5 11 11 9 11 6.5 9 2 6.5 2z" fill="#787885"/></svg></svg>